<svg id="neu" xmlns="http://www.w3.org/2000/svg" viewBox="0 0 518.18 121.76" style="max-height: 75px;"><defs><style>.cls-header-40-years-in-education-logo-en-1{fill:#5b5b5b;}.cls-header-40-years-in-education-logo-en-2,.cls-header-40-years-in-education-logo-en-3{fill:#8f2a46;}.cls-header-40-years-in-education-logo-en-3{fill-rule:evenodd;}</style></defs><title>ydu-40.yil</title><path class="cls-header-40-years-in-education-logo-en-1" d="M466.73,54.77V43.55l-5.84-14.86h2.78l4.47,11.87,4.36-11.87h2.74l-5.77,14.86V54.77Zm-16.94,0V30.93h-5.23V28.69h13.09v2.24h-5.23V54.77Zm-14-26.08h2.67V54.77h-2.67ZM415.75,47.84h2.53a6.48,6.48,0,0,0,1.15,3.79,3.65,3.65,0,0,0,3,1.23,3.53,3.53,0,0,0,2.76-1.18,4.55,4.55,0,0,0,1.06-3.14,5.4,5.4,0,0,0-1-3.13,18.93,18.93,0,0,0-4.06-3.69,16.33,16.33,0,0,1-4.08-3.9,7.09,7.09,0,0,1-1-3.76,5.74,5.74,0,0,1,1.64-4.19,5.56,5.56,0,0,1,4.13-1.68,5.88,5.88,0,0,1,4.6,1.86,7.87,7.87,0,0,1,1.78,5.21h-2.45a6.6,6.6,0,0,0-1.13-3.62A3.2,3.2,0,0,0,422,30.43a3.41,3.41,0,0,0-2.56,1,3.68,3.68,0,0,0-1,2.65,4.25,4.25,0,0,0,.33,1.64,4.78,4.78,0,0,0,.94,1.44,21.78,21.78,0,0,0,2.65,2.24l2.22,1.68a12.48,12.48,0,0,1,3.15,3.49,7.88,7.88,0,0,1,.95,3.88,7,7,0,0,1-1.76,5,6.86,6.86,0,0,1-9.48-.06A8.22,8.22,0,0,1,415.75,47.84Zm-19.1,6.93V28.69h4.74q4.25,0,6.33,1.71a6.23,6.23,0,0,1,2.09,5.14,7.18,7.18,0,0,1-1.06,4,5.63,5.63,0,0,1-3.06,2.25l4.26,13h-2.88l-3.93-12.41-1.67.06h-2.16V54.77Zm2.66-14.68h2.28a6.1,6.1,0,0,0,4-1.14,4.18,4.18,0,0,0,1.35-3.4,4.25,4.25,0,0,0-1.33-3.42,6.14,6.14,0,0,0-4-1.13h-2.28Zm-21,14.68V28.69h11.72v2.42H381v9h6.63v2.38H381v9.88h9.37v2.42Zm-14.29,0-6-26.08h2.68l3.89,17.78c.13.54.31,1.67.55,3.37.05.32.08.55.11.7.14-.84.27-1.6.4-2.26l.38-1.91L370,28.69h2.56l-5.94,26.08ZM349.51,28.69h2.67V54.77h-2.67Zm-17.26,8.05c-.37-1-.71-2-1-3s-.64-2-.95-3.05V54.77h-2.34V28.69h3.89l5.39,14.79c.41,1.18.79,2.3,1.14,3.37s.67,2.12,1,3.13c-.07-.78-.12-1.57-.16-2.39s0-1.93,0-3.32V28.69h2.34V54.77h-2.63Zm-25.4,8.9V28.69h2.67V45.4q0,4.71.84,6.1a3.27,3.27,0,0,0,3.06,1.39,3.21,3.21,0,0,0,3-1.42q.84-1.41.84-6.07V28.69h2.67v17a28.56,28.56,0,0,1-.3,5,6.12,6.12,0,0,1-1.05,2.48,5.46,5.46,0,0,1-2.19,1.63,7.5,7.5,0,0,1-3,.57,7.62,7.62,0,0,1-3-.57,5.23,5.23,0,0,1-2.18-1.63,5.42,5.42,0,0,1-1.07-2.4A28.51,28.51,0,0,1,306.85,45.64Zm-21.4,9.13V30.93h-5.23V28.69h13.09v2.24h-5.23V54.77Zm-23.23-6.93h2.53a6.48,6.48,0,0,0,1.15,3.79,3.65,3.65,0,0,0,3,1.23,3.51,3.51,0,0,0,2.76-1.18,4.55,4.55,0,0,0,1.06-3.14,5.4,5.4,0,0,0-1-3.13,18.93,18.93,0,0,0-4.06-3.69,16.43,16.43,0,0,1-4.07-3.9,7,7,0,0,1-1-3.76,5.75,5.75,0,0,1,1.65-4.19,5.54,5.54,0,0,1,4.13-1.68A5.86,5.86,0,0,1,273,30.05a7.87,7.87,0,0,1,1.78,5.21h-2.45a6.6,6.6,0,0,0-1.13-3.62,3.2,3.2,0,0,0-2.68-1.21,3.43,3.43,0,0,0-2.56,1,3.68,3.68,0,0,0-.95,2.65,4.09,4.09,0,0,0,.34,1.64,4.57,4.57,0,0,0,.93,1.44,22.59,22.59,0,0,0,2.65,2.24q1.77,1.32,2.22,1.68a12.48,12.48,0,0,1,3.15,3.49,7.88,7.88,0,0,1,.95,3.88,7,7,0,0,1-1.76,5,6.08,6.08,0,0,1-4.65,1.87A6.15,6.15,0,0,1,264,53.34,8.22,8.22,0,0,1,262.22,47.84Zm-20,6.93,5.65-26.08h3.68l5.7,26.08h-2.82L253,47.09h-6.56l-1.52,7.68ZM247,44.63h5.45L249.67,31ZM225.8,54.77V28.69h11.72v2.42h-9.05v9h6.64v2.38h-6.64v9.88h9.38v2.42Zm-27.79,0V28.69h4.75q4.25,0,6.33,1.71a6.23,6.23,0,0,1,2.09,5.14,7.18,7.18,0,0,1-1.06,4,5.71,5.71,0,0,1-3.06,2.25l4.26,13h-2.88L204.5,42.36l-1.67.06h-2.15V54.77Zm2.67-14.68H203A6.11,6.11,0,0,0,207,39a4.18,4.18,0,0,0,1.35-3.4A4.25,4.25,0,0,0,207,32.13,6.17,6.17,0,0,0,203,31h-2.27ZM177,54.77l5.65-26.08h3.68L192,54.77h-2.82l-1.52-7.68h-6.56l-1.51,7.68Zm4.72-10.14h5.44L184.42,31ZM160.55,54.77V28.69h11.72v2.42h-9.05v9h6.63v2.38h-6.63v9.88h9.37v2.42Zm-17.19-18c-.37-1-.71-2-1-3s-.64-2-.95-3.05V54.77H139V28.69h3.89l5.39,14.79c.4,1.18.79,2.3,1.14,3.37s.67,2.12,1,3.13c-.08-.78-.12-1.57-.16-2.39s0-1.93,0-3.32V28.69h2.34V54.77h-2.63Z"></path><path class="cls-header-40-years-in-education-logo-en-2" d="M348.3,77a3.81,3.81,0,0,1-1.47,1c-.15,0-.17-.19,0-.79.38-1.55.73-3.1,1.09-4.61.66-2.83,0-3.17-.49-3.17a3.05,3.05,0,0,0-1.49.49,15.09,15.09,0,0,0-4.07,3.9h0l.46-1.93c.42-1.7.33-2.46-.18-2.46A6,6,0,0,0,339,71.58l.29.53a4.12,4.12,0,0,1,1.44-1c.13,0,.2.18,0,.89-.53,2.46-1.2,5.11-1.79,7.51l.13.17a11.52,11.52,0,0,1,1.59-.44c.27-1.33.6-2.66.87-3.74,1.1-1.88,3.67-4.63,4.65-4.63.35,0,.49.33.18,1.59-.4,1.64-.78,3.26-1.2,4.92s-.2,2.3.35,2.3,1.82-.73,3.13-2.14Zm-17.38,1.8c-1.18,0-1.86-1-1.86-2.68,0-3.41,1.48-5.23,2.35-5.6a1.8,1.8,0,0,1,.84-.2c1,0,1.79.86,1.79,2.65,0,2.84-1.22,5.19-2.41,5.69A1.83,1.83,0,0,1,330.92,78.8Zm-.8.88a5.48,5.48,0,0,0,3.41-1.39,7.19,7.19,0,0,0,2.37-5.36c0-2.19-1.11-3.46-2.94-3.46a5.66,5.66,0,0,0-2.4.71,6.76,6.76,0,0,0-3.36,6C327.2,78,328,79.68,330.12,79.68ZM323.88,77a4.42,4.42,0,0,1-1.55,1c-.13,0-.17-.17,0-.7l1.53-6.12c.24-1,.26-1.75-.23-1.75a7.47,7.47,0,0,0-3.36,2.11l.26.51a4.24,4.24,0,0,1,1.51-1c.16,0,.16.22,0,.7l-1.37,5.67c-.44,1.82-.16,2.17.29,2.17.77,0,2.5-1.3,3.23-2.21Zm0-11.78a1.31,1.31,0,0,0-1.22,1.31.93.93,0,0,0,.93,1,1.23,1.23,0,0,0,1.18-1.28C324.72,65.69,324.44,65.22,323.86,65.22Zm-5.31,4.61H316l.78-3.34-.2-.13-1.68,1.37-.51,2.1H313l-.56.66.07.2h1.64l-1.31,6.07c-.48,2.28,0,2.92.47,2.92,1.17,0,2.83-1.48,3.56-2.37l-.31-.46a4.77,4.77,0,0,1-2,1.28c-.24,0-.35-.24-.13-1.32l1.3-6.11,2.2-.11Zm-15.83,8.44c-.31,0-.59-.47-.59-1.47,0-2.19.88-4.8,2.39-5.91a2.7,2.7,0,0,1,1.57-.46,3.59,3.59,0,0,1,1.48.31c-.15.71-.48,2.3-.73,3.19C306.09,75.45,303.59,78.27,302.72,78.27Zm6.74-1.42a4.89,4.89,0,0,1-1.6,1.15c-.13,0-.2-.18,0-1,.51-2.81,1.17-5.83,1.53-7.2l-.07-.09a4.11,4.11,0,0,1-.84-.13,7.21,7.21,0,0,0-1.38-.16A7,7,0,0,0,303,71.18a8.14,8.14,0,0,0-2.66,6c0,1.77.71,2.5,1.28,2.5a3.7,3.7,0,0,0,2.06-1,16.32,16.32,0,0,0,2.86-3.06h0l-.44,2.1c-.31,1.62,0,2,.4,2a6,6,0,0,0,3.23-2.3Zm-12.18-.11a5.24,5.24,0,0,1-3.08,1.64c-.95,0-1.57-.82-1.57-2.39a8.6,8.6,0,0,1,1-4,2.29,2.29,0,0,1,1.83-1.46,2,2,0,0,1,1.67,1c.15.2.31.24.48.13a1.23,1.23,0,0,0,.73-1c0-.55-.73-1.11-1.68-1.11a6.58,6.58,0,0,0-3.54,1.64,7.66,7.66,0,0,0-2.28,5.32c0,2.12.95,3.25,2.37,3.25a6.52,6.52,0,0,0,4.42-2.45Zm-9.54.15A4.43,4.43,0,0,1,286.15,78c-.16,0-.2-.17-.07-.86.56-2.88,1.13-5.36,1.73-7.71h-.24l-1.53.58c-.29,1.35-.55,2.53-.8,3.54-.86,1.62-3.34,4.59-4.58,4.59-.33,0-.51-.38-.27-1.46.42-1.78.82-3.57,1.22-5.32.35-1.48.27-1.93-.24-1.93a6.73,6.73,0,0,0-3.26,2.09l.24.53A6.6,6.6,0,0,1,279.91,71c.17,0,.19.2.06.76-.4,1.68-.8,3.39-1.19,5.09-.58,2.39.13,2.81.73,2.81A3.27,3.27,0,0,0,281.3,79a17.47,17.47,0,0,0,3.57-3.61h0c-.16.73-.24,1.17-.42,2-.44,1.92-.13,2.34.33,2.34.69,0,2.15-1,3.21-2.26ZM268,78.24c-.37,0-.69-.51-.69-1.63,0-1.87.87-4.66,2.35-5.72a2.49,2.49,0,0,1,1.55-.46,3.06,3.06,0,0,1,1.8.57l-.71,3.17C271.61,75.5,269.17,78.24,268,78.24Zm7-1.3A3.79,3.79,0,0,1,273.44,78c-.15,0-.19-.2-.08-.73.77-4.29,1.7-8.59,2.74-13,.09-.44,0-.62-.15-.62a30.82,30.82,0,0,1-3.39.78l-.07.55h.71c1,0,1,.09.84,1.08l-.73,3.66a3.37,3.37,0,0,0-1.3-.25,7.4,7.4,0,0,0-3.92,1.71A8.06,8.06,0,0,0,265.52,77c0,1.77.71,2.65,1.44,2.65a3.63,3.63,0,0,0,2.14-1,15.1,15.1,0,0,0,2.93-2.9l0,0-.4,1.88c-.35,1.71,0,2.06.4,2.06a6.08,6.08,0,0,0,3.26-2.23ZM253.79,65.05l-.14.57c1.82.18,1.93.29,1.58,2.06l-1.75,9.08c-.36,1.79-.54,1.9-2.33,2.06l-.13.6h10.36c.31-.69,1.13-2.81,1.37-3.41l-.62-.22a9.54,9.54,0,0,1-1.48,2.12c-.6.58-1.26.75-2.9.75-1.24,0-1.9,0-2.24-.31s-.35-.84-.11-2.12l.73-3.88h2.13c1.9,0,1.93.16,1.88,1.71h.62l.84-4.19H261c-.53,1.44-.66,1.62-2.52,1.62h-2.13l.91-4.81c.18-.81.22-.9,1-.9h1.73c1.62,0,1.9.24,2.15.75a5.2,5.2,0,0,1,.29,2l.64,0c.15-1.3.35-3,.42-3.38ZM243.47,77A3.74,3.74,0,0,1,242,78c-.15,0-.18-.19,0-.79.37-1.55.73-3.1,1.08-4.61.67-2.83,0-3.17-.49-3.17a3,3,0,0,0-1.48.49,15,15,0,0,0-4.07,3.9h0l.47-1.93c.42-1.7.33-2.46-.18-2.46a6,6,0,0,0-3.12,2.11l.29.53a4.12,4.12,0,0,1,1.44-1c.13,0,.19.18,0,.89-.53,2.46-1.2,5.11-1.8,7.51l.14.17a11.14,11.14,0,0,1,1.59-.44c.27-1.33.6-2.66.86-3.74,1.11-1.88,3.68-4.63,4.65-4.63.36,0,.49.33.18,1.59-.4,1.64-.77,3.26-1.19,4.92s-.2,2.3.35,2.3,1.82-.73,3.12-2.14Zm-12.75,0a4.42,4.42,0,0,1-1.55,1c-.13,0-.17-.17,0-.7l1.53-6.12c.24-1,.26-1.75-.22-1.75a7.43,7.43,0,0,0-3.37,2.11l.27.51a4.15,4.15,0,0,1,1.5-1c.16,0,.16.22,0,.7l-1.37,5.67c-.44,1.82-.15,2.17.29,2.17.77,0,2.5-1.3,3.23-2.21Zm0-11.78a1.31,1.31,0,0,0-1.22,1.31.93.93,0,0,0,.93,1,1.23,1.23,0,0,0,1.18-1.28A.92.92,0,0,0,230.7,65.22ZM214.48,79.68c1.79,0,4-1.66,4-3.34,0-1-.53-1.6-1.86-2.59-.79-.62-1.44-1.17-1.44-2a1.19,1.19,0,0,1,1.2-1.24,2.23,2.23,0,0,1,1.73,1,.3.3,0,0,0,.48.09,1.06,1.06,0,0,0,.56-.91c0-.57-.76-1.24-1.73-1.24A4.39,4.39,0,0,0,215,70.54a2.8,2.8,0,0,0-1.15,2.15c0,1.12.93,1.94,1.93,2.7s1.28,1.3,1.28,1.86a1.36,1.36,0,0,1-1.46,1.33,2.76,2.76,0,0,1-2.13-1.35c-.11-.16-.28-.2-.55-.07a1.09,1.09,0,0,0-.64.93C212.24,78.86,213.43,79.68,214.48,79.68Zm-10.43-7.53a4.42,4.42,0,0,1,1.57-1.06c.18,0,.18.22,0,1-.42,2.37-1,5.1-1.62,7.47l.18.17a9,9,0,0,1,1.57-.4c.27-1.46.53-2.85.89-4.34a14.72,14.72,0,0,1,1.57-2.74c.51-.71.86-.93,1.13-.93a1,1,0,0,1,.75.38c.11.11.29.11.49,0a2.11,2.11,0,0,0,.57-.64,1,1,0,0,0,0-1,1.22,1.22,0,0,0-1-.56c-.88,0-2.19,1.51-3.32,3.68h-.06l.22-1.11c.33-1.55.31-2.57-.25-2.57s-2,.91-3.1,2.18Zm-9.85,6.12c-.31,0-.59-.47-.59-1.47,0-2.19.88-4.8,2.39-5.91a2.7,2.7,0,0,1,1.57-.46,3.63,3.63,0,0,1,1.48.31c-.15.71-.48,2.3-.73,3.19C197.57,75.45,195.07,78.27,194.2,78.27Zm6.73-1.42A4.79,4.79,0,0,1,199.34,78c-.13,0-.2-.18,0-1,.51-2.81,1.17-5.83,1.52-7.2l-.06-.09a4,4,0,0,1-.84-.13,7.21,7.21,0,0,0-1.38-.16,7,7,0,0,0-4.12,1.71,8.17,8.17,0,0,0-2.65,6c0,1.77.71,2.5,1.28,2.5a3.7,3.7,0,0,0,2.06-1A16.32,16.32,0,0,0,198,75.63h0l-.44,2.1c-.31,1.62,0,2,.4,2a6.07,6.07,0,0,0,3.23-2.3Zm-14.16-6.47a1.1,1.1,0,0,1,1.11,1.22c0,1-.93,2-4.1,2.88.38-2.48,1.48-3.5,2.08-3.83A1.77,1.77,0,0,1,186.77,70.38Zm1.84,6.29a5.16,5.16,0,0,1-3.24,1.71c-1.35,0-1.72-1.31-1.72-2.51a4.35,4.35,0,0,1,0-.7c2.13-.54,5.85-1.73,5.85-3.92a1.83,1.83,0,0,0-1.95-1.78,5.53,5.53,0,0,0-3.06,1.24,7.37,7.37,0,0,0-2.66,5.74c0,2.64,1.42,3.23,2.44,3.23s2.72-.42,4.67-2.5Zm-5-11.62h-4.79l-.15.59.69.09c.82.11,1,.29.51,1.07-.91,1.5-2.51,3.74-3.57,5.2-.62-1.51-1.59-4.1-2-5.34-.22-.64-.17-.82.6-.93l.78-.11.15-.57h-5.13l-.14.57c1.4.18,1.53.27,2,1.57.89,2.31,1.44,3.79,2,5.19a2.2,2.2,0,0,1,.11,1.3l-.6,3c-.37,1.91-.53,2-2.32,2.15l-.16.6h5.92l.13-.6c-2-.18-2.13-.27-1.75-2.15l.62-3.12a2.55,2.55,0,0,1,.53-1.26c1.46-2.08,2.64-3.72,3.63-5s1.38-1.52,2.79-1.68Zm-25.15,1c1.41,0,1.7,1.9,1.64,3.61C160,72.51,158.86,79,156.15,79c-1.41,0-1.75-1.9-1.7-3.85C154.49,71.93,155.73,66.09,158.46,66.09Zm.11-.73c-3.94,0-5.91,5.69-6,9.16-.07,2.68.82,5.16,3.41,5.16,4,0,5.85-5.78,5.91-9.32C162,67.88,161.18,65.36,158.57,65.36Zm-11.09,2.25L146,74.5h-4.36q2.72-3.52,5.75-6.89Zm2.39,6.89h-2.12l1.74-9h-1c-2.74,2.74-5.71,6.24-8.26,9.37l-.13.59h5.71l-.29,1.47c-.33,1.66-.42,1.77-2.34,1.92l-.14.58h5.61l.13-.58c-1.73-.15-1.82-.29-1.53-1.92l.27-1.47h2.1Z"></path><path class="cls-header-40-years-in-education-logo-en-3" d="M60.88,5.79A55.09,55.09,0,1,1,5.79,60.88,55.2,55.2,0,0,1,60.88,5.79m0-4.79A59.88,59.88,0,1,1,1,60.88,60,60,0,0,1,60.88,1Z"></path><path class="cls-header-40-years-in-education-logo-en-3" d="M58.48,60.88v56.29C77.65,111.18,92,91.88,92,60.88S77.65,10.58,58.48,4.59Z"></path></svg>